<svg width="26" height="27" viewBox="0 0 26 27" fill="none" xmlns="http://www.w3.org/2000/svg">
<path d="M14.421 0.504108C14.0371 0.178641 13.5502 0 13.0469 0C12.5436 0 12.0566 0.178641 11.6727 0.504108L1.04771 9.51836C0.812436 9.71782 0.623405 9.96611 0.493746 10.246C0.364087 10.5258 0.296908 10.8306 0.296875 11.139V24.4599C0.296875 25.0235 0.520758 25.564 0.919273 25.9625C1.31779 26.3611 1.85829 26.5849 2.42188 26.5849H9.15104C9.43283 26.5849 9.70308 26.473 9.90234 26.2737C10.1016 26.0745 10.2135 25.8042 10.2135 25.5224V16.6683H15.8802V25.5224C15.8802 26.1089 16.3562 26.5849 16.9427 26.5849H23.6719C24.2355 26.5849 24.776 26.3611 25.1745 25.9625C25.573 25.564 25.7969 25.0235 25.7969 24.4599V11.139C25.7968 10.8306 25.7297 10.5258 25.6 10.246C25.4703 9.96611 25.2813 9.71782 25.046 9.51836L14.421 0.504108Z" fill="white"/>
</svg>
