<svg width="26" height="27" viewBox="0 0 26 27" fill="none" xmlns="http://www.w3.org/2000/svg">
<path d="M6.42188 1.63184C6.42188 1.42049 6.33792 1.2178 6.18848 1.06836C6.03903 0.918917 5.83634 0.834961 5.625 0.834961C5.41366 0.834961 5.21097 0.918917 5.06152 1.06836C4.91208 1.2178 4.82812 1.42049 4.82812 1.63184V2.42871H3.23438C2.389 2.42871 1.57824 2.76454 0.980472 3.36231C0.3827 3.96008 0.046875 4.77083 0.046875 5.61621L0.046875 7.20996H25.5469V5.61621C25.5469 4.77083 25.2111 3.96008 24.6133 3.36231C24.0155 2.76454 23.2048 2.42871 22.3594 2.42871H20.7656V1.63184C20.7656 1.42049 20.6817 1.2178 20.5322 1.06836C20.3828 0.918917 20.1801 0.834961 19.9688 0.834961C19.7574 0.834961 19.5547 0.918917 19.4053 1.06836C19.2558 1.2178 19.1719 1.42049 19.1719 1.63184V2.42871H6.42188V1.63184ZM15.0313 17.1645C16.0274 17.1645 16.9183 16.3931 16.9183 15.2839C16.9183 13.9579 16.0784 13.3236 15.0696 13.3236C14.1356 13.3236 13.2081 13.9404 13.2081 15.252C13.2081 16.5541 14.0735 17.1645 15.0313 17.1645Z" fill="white"/>
<path d="M25.5469 23.1475V8.80371H0.046875V23.1475C0.046875 23.9928 0.3827 24.8036 0.980472 25.4014C1.57824 25.9991 2.389 26.335 3.23438 26.335H22.3594C23.2048 26.335 24.0155 25.9991 24.6133 25.4014C25.2111 24.8036 25.5469 23.9928 25.5469 23.1475ZM14.9261 21.219C13.1571 21.219 12.2869 19.9966 12.212 18.9766H13.3005C13.369 19.5663 13.9173 20.2835 14.9755 20.2835C16.3207 20.2835 17.049 18.932 17.0554 16.8346H17.0123C16.7685 17.4944 15.9971 18.0937 14.8082 18.0937C13.4503 18.0937 12.1371 17.1215 12.1371 15.2727C12.1371 13.4606 13.5252 12.3896 15.001 12.3896C16.8689 12.3896 18.1136 13.5595 18.1136 16.6418C18.1136 19.5185 16.9311 21.2174 14.9261 21.2174V21.219ZM10.3202 12.557V21.0549H9.24281V13.7109H9.22369C8.7615 13.9595 7.81641 14.5396 7.21875 14.9492V13.84C7.89031 13.3713 8.58907 12.9429 9.31134 12.557H10.3202Z" fill="white"/>
</svg>
