<svg width="54" height="50" viewBox="0 0 54 50" fill="none" xmlns="http://www.w3.org/2000/svg">
<path d="M38.4159 38.16C36.5986 39.4007 34.2972 40.0223 31.5116 40.0223C29.0885 40.0223 26.8794 39.4773 24.8798 38.3874C22.8801 37.2975 21.2767 35.7392 20.0652 33.7102C19.9999 33.5999 19.9414 33.485 19.8806 33.3724H8.94316C9.40705 34.8812 10.0083 36.3112 10.7537 37.6623C12.7218 41.236 15.4173 44.0374 18.838 46.0641C22.2586 48.093 26.1814 49.1064 30.6018 49.1064C34.054 49.1064 37.1278 48.6222 39.821 47.6539C42.5143 46.6856 44.8472 45.2917 46.8154 43.4744C46.8312 43.4609 46.8469 43.4451 46.8627 43.4316C49.2114 41.2586 50.9904 39.2746 51.5466 38.1622C51.8776 37.5002 53.4652 34.1021 53.6521 33.3702H42.6449C41.618 35.3361 40.2084 36.9349 38.4136 38.16H38.4159Z" fill="white"/>
<path d="M30.1949 10.241C30.3615 10.2343 30.5281 10.2275 30.6948 10.2275C32.512 10.2275 34.2505 10.6374 35.9169 11.4548C37.581 12.2722 38.9592 13.4838 40.0491 15.0871C40.9454 16.409 41.4678 18.0326 41.6277 19.9467H30.1949V27.7585H52.5876C52.5876 22.3067 51.6328 17.616 49.7255 13.6774C47.8181 9.74113 45.2285 6.7281 41.9587 4.63835C38.689 2.5486 35.0229 1.50372 30.9673 1.50372C30.7083 1.50372 30.4516 1.50823 30.1949 1.51498V10.2388V10.241Z" fill="white"/>
<path d="M0.719096 11.2702C2.25038 5.10226 7.22029 0.418338 13.6922 0.0310135C25.5844 -0.680583 30.5904 10.9954 26.7284 21.0434C26.3456 22.0387 23.9338 26.7091 23.0736 26.9658C22.1345 27.2451 21.5175 26.6866 21.7067 25.734C21.7697 25.4165 23.3888 23.4056 23.7221 22.8269C27.3049 16.6342 27.2891 7.61312 20.547 3.60926C14.2845 -0.108604 6.27 2.77381 3.45289 9.34707C3.01377 10.3739 2.61068 12.7114 2.14679 13.3622C1.75496 13.9094 0.514174 14.3395 0.304749 13.5986" fill="#00B7FF"/>
<path d="M0.286643 16.5351C0.185308 15.4699 0.761791 15.8212 1.37881 15.6546C4.36706 14.8417 3.89642 12.4434 4.91202 10.0091C8.93389 0.398062 23.7355 1.9969 24.4944 13.0942C24.866 18.5167 21.5152 24.4505 17.6464 28.0602C17.401 28.2877 16.3854 29.1569 16.1467 29.22C15.2392 29.4632 14.4668 28.693 14.8811 27.8193C15.0185 27.531 16.6939 26.2475 17.1127 25.7948C19.7992 22.8877 22.8641 17.5484 22.6299 13.4905C22.1119 4.46722 9.92697 2.82334 6.66173 10.9594C5.82178 13.0537 5.97266 15.488 3.82886 16.7738C3.20959 17.1453 1.13786 17.9425 0.574885 17.3818" fill="#00B7FF"/>
<path d="M1.08886 19.4941C1.14741 19.3026 3.11105 18.9491 3.56593 18.7712C8.2341 16.9292 6.71182 12.6551 9.33302 9.6398C10.3644 8.45306 11.8529 7.65139 13.4269 7.48024C16.9737 7.09742 20.1736 8.81336 20.8694 12.4659C21.6576 16.6094 18.7211 21.7347 16.0504 24.7342C15.2149 25.6732 11.8799 29.0195 10.8283 29.2267C9.9658 29.3979 9.15737 28.7335 9.6145 27.8756C9.80816 27.5085 11.9812 26.0831 12.5262 25.5989C15.2082 23.2164 18.845 18.0866 19.0499 14.4296C19.3697 8.69401 11.5669 7.5433 9.76988 12.8668C8.82634 15.6591 8.90966 17.3503 6.33575 19.4107C5.45752 20.1156 2.78228 21.496 1.70362 21.1199C1.43565 21.0276 1.02806 19.7125 1.09336 19.4941" fill="#00B7FF"/>
<path d="M3.10602 22.7683C3.21636 22.658 5.44798 21.9058 5.99068 21.5951C7.84173 20.5344 9.45634 18.6676 10.2828 16.7085C11.1137 14.7358 11.0574 11.6485 13.6854 11.1981C15.1694 10.9437 17.2073 11.7363 17.4348 13.3734C18.0383 17.7308 12.1203 24.9707 8.31688 26.7136C7.63231 27.0266 6.36224 27.5108 5.86458 26.6731C5.14848 25.4683 7.32155 25.0044 8.13673 24.5383C10.8345 22.9957 15.023 17.911 15.4171 14.7921C15.6175 13.2023 14.1538 12.5538 13.3926 13.5671C13.0729 13.9927 12.6743 16.0757 12.3928 16.8256C11.3749 19.5414 9.24466 22.104 6.673 23.4754C5.8871 23.8943 4.56749 24.5045 3.68025 24.3334C3.088 24.2208 2.68491 23.1962 3.11052 22.7728L3.10602 22.7683Z" fill="#00B7FF"/>
</svg>
