<svg width="27" height="28" viewBox="0 0 27 28" fill="none" xmlns="http://www.w3.org/2000/svg">
<path d="M0.63897 26.7964C0.639995 26.5056 0.756517 26.227 0.962902 26.0221C1.16929 25.8172 1.44863 25.7026 1.73948 25.7036L25.8657 25.7887C26.1565 25.7897 26.4351 25.9062 26.64 26.1126C26.8449 26.319 26.9595 26.5983 26.9585 26.8892C26.9574 27.18 26.8409 27.4586 26.6345 27.6635C26.4281 27.8684 26.1488 27.983 25.8579 27.982L1.73175 27.8969C1.4409 27.8959 1.16237 27.7794 0.957436 27.573C0.7525 27.3666 0.637944 27.0873 0.63897 26.7964ZM5.03715 23.522L10.5204 23.5413C11.1021 23.5433 11.6608 23.3142 12.0735 22.9043C12.4863 22.4945 12.7193 21.9374 12.7214 21.3557L12.7678 8.19598C12.7698 7.61428 12.5407 7.05559 12.1308 6.64282C11.721 6.23005 11.1639 5.997 10.5822 5.99495L5.09899 5.97563C4.5173 5.97358 3.95861 6.20269 3.54584 6.61256C3.13307 7.02243 2.90002 7.57949 2.89797 8.16119L2.85159 21.3209C2.84954 21.9026 3.07865 22.4613 3.48852 22.8741C3.89839 23.2869 4.45545 23.5199 5.03715 23.522ZM17.1002 23.5645L22.5835 23.5838C23.1652 23.5858 23.7239 23.3567 24.1366 22.9469C24.5494 22.537 24.7824 21.9799 24.7845 21.3982L24.8502 2.75527C24.8523 2.17357 24.6231 1.61489 24.2133 1.20211C23.8034 0.789343 23.2463 0.556297 22.6646 0.554246L17.1814 0.534919C16.5997 0.532869 16.041 0.761982 15.6283 1.17185C15.2155 1.58173 14.9824 2.13878 14.9804 2.72048L14.9147 21.3634C14.9126 21.9451 15.1417 22.5038 15.5516 22.9166C15.9615 23.3294 16.5185 23.5624 17.1002 23.5645Z" fill="white"/>
</svg>
