<svg width="33" height="33" viewBox="0 0 33 33" fill="none" xmlns="http://www.w3.org/2000/svg">
<path d="M29.4982 17.1629C29.5043 16.9427 29.5043 16.7226 29.4982 16.5024L31.7792 13.6527C31.8988 13.5031 31.9816 13.3275 32.0209 13.14C32.0602 12.9525 32.0549 12.7584 32.0054 12.5734C31.6308 11.168 31.0715 9.81854 30.3421 8.56024C30.2465 8.39561 30.1138 8.25557 29.9545 8.15127C29.7953 8.04696 29.6139 7.98127 29.4248 7.95941L25.7984 7.55581C25.6476 7.39681 25.4947 7.24393 25.3398 7.09716L24.9117 3.46163C24.8897 3.27239 24.8238 3.0909 24.7192 2.93164C24.6146 2.77238 24.4743 2.63976 24.3094 2.54434C23.0512 1.81548 21.7016 1.25715 20.2962 0.884048C20.1112 0.834607 19.9171 0.829323 19.7296 0.868624C19.5421 0.907925 19.3665 0.990711 19.2169 1.11031L16.3748 3.37908C16.1547 3.37908 15.9345 3.37908 15.7144 3.37908L12.8646 1.10267C12.715 0.983067 12.5394 0.900281 12.3519 0.86098C12.1644 0.821679 11.9704 0.826962 11.7853 0.876404C10.3799 1.25101 9.03045 1.81033 7.77215 2.53976C7.60753 2.63535 7.46749 2.76805 7.36318 2.9273C7.25887 3.08654 7.19318 3.26794 7.17133 3.45705L6.76772 7.08952C6.60872 7.24138 6.45584 7.39426 6.30907 7.54816L2.67355 7.96553C2.4843 7.98755 2.30281 8.05347 2.14355 8.15805C1.9843 8.26263 1.85167 8.40297 1.75626 8.56788C1.02754 9.82635 0.468741 11.1758 0.0944337 12.581C0.045201 12.7662 0.0401656 12.9604 0.079733 13.1478C0.1193 13.3353 0.202364 13.5109 0.322227 13.6604L2.59099 16.5024C2.59099 16.7226 2.59099 16.9427 2.59099 17.1629L0.314583 20.0126C0.194981 20.1622 0.112195 20.3379 0.0728944 20.5253C0.0335936 20.7128 0.0388766 20.9069 0.0883183 21.092C0.46292 22.4973 1.02225 23.8468 1.75167 25.1051C1.84726 25.2697 1.97996 25.4098 2.13921 25.5141C2.29846 25.6184 2.47985 25.6841 2.66896 25.7059L6.29532 26.1095C6.44718 26.2685 6.60006 26.4214 6.75396 26.5682L7.17744 30.2037C7.19946 30.393 7.26539 30.5744 7.36997 30.7337C7.47455 30.893 7.61489 31.0256 7.7798 31.121C9.03826 31.8497 10.3877 32.4085 11.7929 32.7828C11.9781 32.832 12.1723 32.8371 12.3598 32.7975C12.5472 32.7579 12.7228 32.6749 12.8723 32.555L15.7144 30.2863C15.9345 30.2924 16.1547 30.2924 16.3748 30.2863L19.2245 32.5673C19.3741 32.6869 19.5498 32.7696 19.7372 32.8089C19.9247 32.8482 20.1188 32.843 20.3039 32.7935C21.7095 32.4196 23.059 31.8602 24.317 31.1302C24.4816 31.0346 24.6217 30.9019 24.726 30.7426C24.8303 30.5834 24.896 30.402 24.9178 30.2129L25.3214 26.5865C25.4804 26.4357 25.6333 26.2828 25.7801 26.1279L29.4156 25.6998C29.6049 25.6778 29.7864 25.6119 29.9456 25.5073C30.1049 25.4027 30.2375 25.2624 30.3329 25.0975C31.0616 23.839 31.6204 22.4895 31.9947 21.0843C32.044 20.8991 32.049 20.705 32.0094 20.5175C31.9699 20.33 31.8868 20.1545 31.7669 20.005L29.4982 17.1629ZM16.0446 22.9479C14.8351 22.9479 13.6528 22.5893 12.6471 21.9173C11.6415 21.2454 10.8577 20.2903 10.3948 19.1729C9.93196 18.0555 9.81086 16.8259 10.0468 15.6396C10.2828 14.4534 10.8652 13.3638 11.7204 12.5085C12.5757 11.6533 13.6653 11.0709 14.8516 10.8349C16.0378 10.5989 17.2674 10.72 18.3848 11.1829C19.5022 11.6457 20.4573 12.4296 21.1292 13.4352C21.8012 14.4409 22.1598 15.6232 22.1598 16.8327C22.1598 18.4545 21.5156 20.01 20.3687 21.1568C19.2219 22.3036 17.6665 22.9479 16.0446 22.9479Z" fill="white"/>
</svg>
