<svg width="29" height="29" viewBox="0 0 29 29" fill="none" xmlns="http://www.w3.org/2000/svg">
<path d="M1.375 14.5C1.375 16.2236 1.71449 17.9303 2.37408 19.5227C3.03367 21.1151 4.00045 22.562 5.21922 23.7808C6.43799 24.9995 7.88488 25.9663 9.47728 26.6259C11.0697 27.2855 12.7764 27.625 14.5 27.625C16.2236 27.625 17.9303 27.2855 19.5227 26.6259C21.1151 25.9663 22.562 24.9995 23.7808 23.7808C24.9995 22.562 25.9663 21.1151 26.6259 19.5227C27.2855 17.9303 27.625 16.2236 27.625 14.5C27.625 11.019 26.2422 7.68064 23.7808 5.21922C21.3194 2.75781 17.981 1.375 14.5 1.375C11.019 1.375 7.68064 2.75781 5.21922 5.21922C2.75781 7.68064 1.375 11.019 1.375 14.5Z" stroke="white" stroke-width="2" stroke-linecap="round" stroke-linejoin="round"/>
<path d="M14.5 20.3333V20.3475" stroke="white" stroke-width="2" stroke-linecap="round" stroke-linejoin="round"/>
<path d="M14.5 15.9584C15.1559 15.9603 15.7933 15.7412 16.3093 15.3363C16.8253 14.9314 17.1897 14.3644 17.3438 13.7269C17.4979 13.0893 17.4326 12.4185 17.1584 11.8226C16.8843 11.2268 16.4173 10.7407 15.8329 10.4429C15.2528 10.1457 14.5891 10.0536 13.9499 10.1815C13.3107 10.3094 12.7336 10.6498 12.3125 11.1473" stroke="white" stroke-width="2" stroke-linecap="round" stroke-linejoin="round"/>
</svg>
