<svg width="29" height="26" viewBox="0 0 29 26" fill="none" xmlns="http://www.w3.org/2000/svg">
<path d="M17.5 7V4C17.5 3.20435 17.1839 2.44129 16.6213 1.87868C16.0587 1.31607 15.2956 1 14.5 1H4C3.20435 1 2.44129 1.31607 1.87868 1.87868C1.31607 2.44129 1 3.20435 1 4V22C1 22.7956 1.31607 23.5587 1.87868 24.1213C2.44129 24.6839 3.20435 25 4 25H14.5C15.2956 25 16.0587 24.6839 16.6213 24.1213C17.1839 23.5587 17.5 22.7956 17.5 22V19" stroke="white" stroke-width="2" stroke-linecap="round" stroke-linejoin="round"/>
<path d="M10 13H28L23.5 8.5" stroke="white" stroke-width="2" stroke-linecap="round" stroke-linejoin="round"/>
<path d="M23.5 17.5L28 13" stroke="white" stroke-width="2" stroke-linecap="round" stroke-linejoin="round"/>
</svg>
