<svg width="32" height="27" viewBox="0 0 32 27" fill="none" xmlns="http://www.w3.org/2000/svg">
<path d="M17.0787 5.31003C17.1384 4.46943 17.4118 3.65893 17.8721 2.95764C18.3324 2.25635 18.9639 1.68825 19.705 1.30878C20.446 0.929309 21.2713 0.751443 22.1003 0.792544C22.9292 0.833644 23.7335 1.09231 24.4347 1.54328C24.5148 1.59654 24.5794 1.67074 24.6215 1.75809C24.6637 1.84544 24.6819 1.9427 24.6743 2.03967C24.6666 2.13664 24.6334 2.22973 24.5781 2.30915C24.5228 2.38858 24.4475 2.45142 24.36 2.49106C23.1412 3.04791 22.1066 3.95023 21.3804 5.08964C20.6543 6.22906 20.2676 7.55712 20.2667 8.91431C20.2667 9.07272 20.2667 9.23114 20.2827 9.38684C20.29 9.48526 20.2707 9.58384 20.2269 9.67195C20.1831 9.76005 20.1164 9.83432 20.0341 9.88673C19.9517 9.93914 19.8568 9.9677 19.7596 9.96932C19.6624 9.97094 19.5667 9.94557 19.4827 9.89594C18.6969 9.43952 18.0542 8.76676 17.6289 7.95533C17.2035 7.14389 17.0128 6.22684 17.0787 5.31003ZM32 19.2871C32.0019 19.906 31.833 20.5132 31.5125 21.0396C31.192 21.5661 30.7327 21.9909 30.1867 22.2658L30.128 22.2929L24.9507 24.5324C24.8995 24.5553 24.8464 24.5734 24.792 24.5865L16.2587 26.7529C16.1741 26.775 16.0873 26.7863 16 26.7867H2.13333C1.56754 26.7867 1.02492 26.5585 0.624839 26.1522C0.224761 25.746 0 25.1949 0 24.6204V19.2045C0 18.6299 0.224761 18.0789 0.624839 17.6727C1.02492 17.2664 1.56754 17.0381 2.13333 17.0381H5.95866L8.97466 13.9741C9.37014 13.5707 9.84041 13.2509 10.3583 13.0331C10.8762 12.8154 11.4315 12.704 11.992 12.7054H18.6667C19.2301 12.7054 19.7862 12.8348 20.2934 13.0841C20.8005 13.3333 21.2456 13.6959 21.5951 14.1446C21.9447 14.5933 22.1896 15.1166 22.3117 15.6752C22.4338 16.2337 22.4298 16.8131 22.3 17.3699L27.8787 16.0673C28.3643 15.9367 28.873 15.9211 29.3655 16.0217C29.8581 16.1223 30.3213 16.3364 30.7195 16.6474C31.1177 16.9585 31.4402 17.3583 31.6622 17.816C31.8842 18.2736 31.9998 18.7769 32 19.2871ZM29.8667 19.2871C29.8665 19.108 29.8257 18.9313 29.7474 18.7708C29.6692 18.6104 29.5555 18.4703 29.4153 18.3616C29.2752 18.253 29.1122 18.1785 28.9391 18.1441C28.7661 18.1097 28.5875 18.1163 28.4173 18.1633L28.376 18.1741L19.4427 20.2606C19.3643 20.2784 19.2843 20.2874 19.204 20.2877H14.9333C14.6504 20.2877 14.3791 20.1736 14.1791 19.9704C13.979 19.7673 13.8667 19.4918 13.8667 19.2045C13.8667 18.9172 13.979 18.6417 14.1791 18.4386C14.3791 18.2354 14.6504 18.1213 14.9333 18.1213H18.6667C19.091 18.1213 19.498 17.9501 19.798 17.6454C20.0981 17.3407 20.2667 16.9275 20.2667 16.4966C20.2667 16.0656 20.0981 15.6524 19.798 15.3477C19.498 15.043 19.091 14.8718 18.6667 14.8718H11.992C11.7117 14.8709 11.4341 14.9265 11.1752 15.0356C10.9163 15.1446 10.6814 15.3048 10.484 15.5068L7.46666 18.5695V24.6204H15.8667L24.1907 22.5068L29.2573 20.3161C29.4417 20.2174 29.596 20.0694 29.7034 19.888C29.8109 19.7066 29.8673 19.4988 29.8667 19.2871ZM22.4 8.91431C22.4 9.87835 22.6815 10.8207 23.2089 11.6223C23.7364 12.4239 24.486 13.0486 25.3631 13.4176C26.2402 13.7865 27.2053 13.883 28.1364 13.6949C29.0675 13.5069 29.9228 13.0426 30.5941 12.361C31.2654 11.6793 31.7225 10.8108 31.9078 9.86524C32.093 8.91971 31.9979 7.93965 31.6346 7.04899C31.2713 6.15833 30.6561 5.39707 29.8667 4.86147C29.0774 4.32588 28.1493 4.04 27.2 4.04C25.9269 4.04 24.7061 4.55355 23.8059 5.46765C22.9057 6.38176 22.4 7.62156 22.4 8.91431Z" fill="white"/>
</svg>
